<?xml version="1.0" encoding="UTF-8"?><svg id="Layer_1" xmlns="http://www.w3.org/2000/svg" width="533.33" height="666.67" viewBox="0 0 533.33 666.67"><defs><style>.cls-1{fill:#71caf2;}</style></defs><path class="cls-1" d="m0,633.33c0,18.41,14.92,33.33,33.33,33.33h466.67c18.41,0,33.33-14.92,33.33-33.33V33.33c0-18.41-14.92-33.33-33.33-33.33H33.33C14.92,0,0,14.92,0,33.33v600ZM266.67,183.33c36.82,0,66.67,29.85,66.67,66.67s-29.85,66.67-66.67,66.67-66.67-29.85-66.67-66.67,29.85-66.67,66.67-66.67Zm-126.3,290.5c23.6-69.75,99.28-107.17,169.03-83.57,39.35,13.32,70.25,44.21,83.57,83.57,5.38,17.47-4.43,35.99-21.9,41.37-3.26,1-6.66,1.5-10.07,1.46h-188.33c-18.41.19-33.49-14.57-33.68-32.98-.03-3.33.43-6.66,1.38-9.85Z"/></svg>