<?xml version="1.0" encoding="UTF-8"?><svg id="Layer_1" xmlns="http://www.w3.org/2000/svg" width="700.09" height="700.09" viewBox="0 0 700.09 700.09"><defs><style>.cls-1{fill:#71caf2;}</style></defs><g id="Drive"><path class="cls-1" d="m87.55,700.05c-23.41.77-46.08-8.29-62.5-25C8.47,658.75-.59,636.29.05,613.05V87.55c-.77-23.41,8.29-46.08,25-62.5C41.47,8.34,64.13-.73,87.55.05h525c23.41-.77,46.08,8.29,62.5,25,16.71,16.42,25.77,39.09,25,62.5v525c-.27,48.31-39.44,87.36-87.75,87.5H87.55Zm250-425l-70.25-121.5L112.3,421.05l70.25,120,155-266Zm248.5,161.25h-305.25c-1.83,0-25.92,39.83-72.25,119.5h308.25l69.25-119.5Zm-157.5-296.5h-134.25l153.25,264.25,4.25,2.5h134.25c-102.5-178-155-266.92-157.5-266.75Z"/></g></svg>