<?xml version="1.0" encoding="UTF-8"?><svg id="Layer_1" xmlns="http://www.w3.org/2000/svg" xmlns:xlink="http://www.w3.org/1999/xlink" viewBox="0 0 1217 763"><defs><style>.cls-1{fill:#4e7aaf;}.cls-2{fill:url(#linear-gradient);}</style><linearGradient id="linear-gradient" x1="607.99" y1="126.24" x2="609.02" y2="851.01" gradientUnits="userSpaceOnUse"><stop offset="0" stop-color="#3fa9f5"/><stop offset=".38" stop-color="#3ea7f3"/><stop offset=".51" stop-color="#3ca3ec"/><stop offset=".61" stop-color="#399ae0"/><stop offset=".69" stop-color="#358fcf"/><stop offset=".75" stop-color="#2f80b9"/><stop offset=".81" stop-color="#286d9e"/><stop offset=".87" stop-color="#20567d"/><stop offset=".91" stop-color="#163c58"/><stop offset=".96" stop-color="#0c202f"/><stop offset="1" stop-color="#000001"/><stop offset="1" stop-color="#000"/></linearGradient></defs><path class="cls-1" d="m1143,69.87H444.1c-27.43,0-53.01-13.09-67.99-34.78C361.04,13.29,335.47,0,307.9,0H74C33.13,0,0,31.28,0,69.87v224.13h1217v-154.27c0-38.59-33.13-69.87-74-69.87Z"/><path class="cls-2" d="m1217,256.68v453.94c0,28.93-26.76,52.38-59.78,52.38H59.78c-33.02,0-59.78-23.45-59.78-52.38V191.84c0-35.81,33.13-64.84,74-64.84h233.9c27.5,0,53.13,12.2,68.1,32.42,14.97,20.22,40.6,32.42,68.1,32.42h698.9c40.87,0,74,29.03,74,64.84Z"/></svg>