<?xml version="1.0" encoding="UTF-8"?><svg id="Layer_1" xmlns="http://www.w3.org/2000/svg" viewBox="0 0 1217 843"><defs><style>.cls-1{fill:#4e7aaf;}.cls-2{fill:#71caf2;}</style></defs><path class="cls-1" d="m376,37h0C361.03,13.93,335.4,0,307.9,0H74C33.13,0,0,33.13,0,74h0v666.22c0,33.02,26.76,59.78,59.78,59.78h1097.44c33.02,0,59.78-26.76,59.78-59.78V148c0-40.87-33.13-74-74-74H444.1c-27.5,0-53.14-13.93-68.1-37Z"/><path class="cls-2" d="m376,174.42h0c-14.97-20.22-40.6-32.42-68.1-32.42H74C33.13,142,0,171.03,0,206.84h0v583.78c0,28.93,26.76,52.38,59.78,52.38h1097.44c33.02,0,59.78-23.45,59.78-52.38V271.68c0-35.81-33.13-64.84-74-64.84H444.1c-27.5,0-53.14-12.2-68.1-32.42Z"/></svg>