<?xml version="1.0" encoding="utf-8"?>
<!-- Generator: Adobe Illustrator 27.5.0, SVG Export Plug-In . SVG Version: 6.00 Build 0)  -->
<svg version="1.1" id="Layer_1" xmlns="http://www.w3.org/2000/svg" xmlns:xlink="http://www.w3.org/1999/xlink" x="0px" y="0px"
	 viewBox="0 0 443.4 421.3" style="enable-background:new 0 0 443.4 421.3;" xml:space="preserve">
<style type="text/css">
	.st0{fill:#71CAF2;}
</style>
<path class="st0" d="M51.7,162.3l100-26c11-3,18-14,15-26c-3-11-14-18-26-15l-52,14c17-22,39-40,66-52c41-18,86-19,128-3
	c41,16,74,48,92,88c5,11,17,15,28,11c11-5,15-17,11-28c-22-51-63-90-115-111c-52-20-109-19-160,3c-34,15-62,38-84,67l-13-49
	c-3-11-14-18-26-15c-11,3-18,14-15,26l26,100C29.7,160.3,36.7,166.3,51.7,162.3L51.7,162.3z M442.7,374.3l-26-99c0,0-4-20-24-15l0,0
	l-100,26c-11,3-18,14-15,26c3,11,14,18,26,15l52-14c-44,58-122,82-193,54c-41-16-74-48-92-88c-5-11-17-15-28-11c-11,5-15,17-11,28
	c22,51,63,90,115,111c25,10,50,14,76,14c66,0,128-31,168-85l13,49c2,9,11,16,20,16c2,0,4,0,5-1C438.7,396.3,445.7,385.3,442.7,374.3
	z"/>
</svg>
