<?xml version="1.0" encoding="UTF-8"?><svg id="Layer_1" xmlns="http://www.w3.org/2000/svg" viewBox="0 0 755 990"><defs><style>.cls-1{fill:#e2574c;}.cls-2{fill:#fff;}.cls-3{fill:#b53629;}</style></defs><path class="cls-1" d="m44.46,0C19.9,0,0,19.9,0,44.46v901.09c0,24.55,19.9,44.46,44.46,44.46h666.09c24.55,0,44.46-19.9,44.46-44.46V186L569,0H44.46Z"/><path class="cls-3" d="m615.95,186h139.05L569,0v139.05c0,25.93,21.02,46.95,46.95,46.95Z"/><path class="cls-2" d="m224.2,387.67c8.4-1.4,19.4-2.6,33.4-2.6,17.2,0,29.8,4,37.8,11.2,7.4,6.4,11.8,16.2,11.8,28.2s-3.6,21.8-10.4,28.8c-9.2,9.8-24.2,14.8-41.2,14.8-5.2,0-10-.2-14-1.2v54h-17.4v-133.2Zm17.4,65c3.8,1,8.6,1.4,14.4,1.4,21,0,33.8-10.2,33.8-28.8s-12.6-26.4-31.8-26.4c-7.6,0-13.4.6-16.4,1.4v52.4Z"/><path class="cls-2" d="m330.6,387.87c10.6-1.6,23.2-2.8,37-2.8,25,0,42.8,5.8,54.6,16.8,12,11,19,26.6,19,48.4s-6.8,40-19.4,52.4c-12.6,12.6-33.4,19.4-59.6,19.4-12.4,0-22.8-.6-31.6-1.6v-132.6Zm17.4,119.2c4.4.8,10.8,1,17.6,1,37.2,0,57.4-20.8,57.4-57.2.2-31.8-17.8-52-54.6-52-9,0-15.8.8-20.4,1.8v106.4Z"/><path class="cls-2" d="m463.8,386.07h72.6v14.6h-55.2v44.8h51v14.4h-51v61h-17.4v-134.8Z"/></svg>