<?xml version="1.0" encoding="UTF-8"?><svg id="Layer_1" xmlns="http://www.w3.org/2000/svg" width="785.04" height="800" viewBox="0 0 785.04 800"><defs><style>.cls-1{fill:#71caf2;fill-rule:evenodd;}</style></defs><path class="cls-1" d="m702.31,400c0-17.41-1.6-35.2-4.85-52.99l87.58-75.91-83.11-142.02-110.49,36.85c-27.91-23.15-59.72-41.41-93.27-53.51L475.39,0h-165.74l-22.78,112.38c-33.93,12.14-65.18,30.12-93.32,53.51l-110.45-36.8L0,271.11l87.58,75.91c-3.25,17.79-4.85,35.58-4.85,52.99s1.6,35.2,4.85,52.99L0,528.89l83.11,142.02,110.49-36.85c27.91,23.15,59.72,41.41,93.27,53.51l22.78,112.42h165.74l22.78-112.38c33.88-12.14,65.18-30.12,93.32-53.51l110.45,36.85,83.11-142.02-87.58-75.91c3.25-17.84,4.85-35.62,4.85-53.04m-309.79,164.71c-90.82,0-164.71-73.88-164.71-164.71s73.88-164.71,164.71-164.71,164.71,73.88,164.71,164.71-73.88,164.71-164.71,164.71"/></svg>